<mxfile host="app.diagrams.net" modified="2020-05-20T14:46:46.596Z" agent="5.0 (Macintosh; Intel Mac OS X 10_15_4) AppleWebKit/605.1.15 (KHTML, like Gecko) Version/13.1 Safari/605.1.15" etag="Isj-B0dmTFlTU4qhyGAK" version="13.1.3" type="github">
  <diagram id="Zks99Tvyce4M7H5BnoTs" name="Page-1">
    <mxGraphModel dx="2404" dy="2314" grid="1" gridSize="10" guides="1" tooltips="1" connect="1" arrows="1" fold="1" page="1" pageScale="1" pageWidth="827" pageHeight="1169" math="0" shadow="0">
      <root>
        <mxCell id="0" />
        <mxCell id="1" parent="0" />
        <mxCell id="UzN45rZz5A2laap2RB3P-1" value="Cliente" style="swimlane;fontStyle=1;align=center;verticalAlign=top;childLayout=stackLayout;horizontal=1;startSize=26;horizontalStack=0;resizeParent=1;resizeParentMax=0;resizeLast=0;collapsible=1;marginBottom=0;" vertex="1" parent="1">
          <mxGeometry x="40" y="100" width="160" height="78" as="geometry" />
        </mxCell>
        <mxCell id="UzN45rZz5A2laap2RB3P-2" value="+ nome: String&#xa;+ endereÃ§o: String" style="text;strokeColor=none;fillColor=none;align=left;verticalAlign=top;spacingLeft=4;spacingRight=4;overflow=hidden;rotatable=0;points=[[0,0.5],[1,0.5]];portConstraint=eastwest;" vertex="1" parent="UzN45rZz5A2laap2RB3P-1">
          <mxGeometry y="26" width="160" height="44" as="geometry" />
        </mxCell>
        <mxCell id="UzN45rZz5A2laap2RB3P-3" value="" style="line;strokeWidth=1;fillColor=none;align=left;verticalAlign=middle;spacingTop=-1;spacingLeft=3;spacingRight=3;rotatable=0;labelPosition=right;points=[];portConstraint=eastwest;" vertex="1" parent="UzN45rZz5A2laap2RB3P-1">
          <mxGeometry y="70" width="160" height="8" as="geometry" />
        </mxCell>
        <mxCell id="UzN45rZz5A2laap2RB3P-13" value="Venda" style="swimlane;fontStyle=1;align=center;verticalAlign=top;childLayout=stackLayout;horizontal=1;startSize=26;horizontalStack=0;resizeParent=1;resizeParentMax=0;resizeLast=0;collapsible=1;marginBottom=0;" vertex="1" parent="1">
          <mxGeometry x="40" y="320" width="160" height="200" as="geometry" />
        </mxCell>
        <mxCell id="UzN45rZz5A2laap2RB3P-14" value="+ pagamento: Pagamento&#xa;+ produto: Produto&#xa;+ cliente: Cliente&#xa;+ vendedor: Vendedor&#xa;+ valorFrete: Double&#xa;+ valorProdutos: Double&#xa;+ valorTotal: Double&#xa;+ enderecoEntrega: String" style="text;strokeColor=none;fillColor=none;align=left;verticalAlign=top;spacingLeft=4;spacingRight=4;overflow=hidden;rotatable=0;points=[[0,0.5],[1,0.5]];portConstraint=eastwest;" vertex="1" parent="UzN45rZz5A2laap2RB3P-13">
          <mxGeometry y="26" width="160" height="124" as="geometry" />
        </mxCell>
        <mxCell id="UzN45rZz5A2laap2RB3P-15" value="" style="line;strokeWidth=1;fillColor=none;align=left;verticalAlign=middle;spacingTop=-1;spacingLeft=3;spacingRight=3;rotatable=0;labelPosition=right;points=[];portConstraint=eastwest;" vertex="1" parent="UzN45rZz5A2laap2RB3P-13">
          <mxGeometry y="150" width="160" height="8" as="geometry" />
        </mxCell>
        <mxCell id="UzN45rZz5A2laap2RB3P-16" value="+ adicionarProduto(): void&#xa;+ pagar(): void" style="text;strokeColor=none;fillColor=none;align=left;verticalAlign=top;spacingLeft=4;spacingRight=4;overflow=hidden;rotatable=0;points=[[0,0.5],[1,0.5]];portConstraint=eastwest;" vertex="1" parent="UzN45rZz5A2laap2RB3P-13">
          <mxGeometry y="158" width="160" height="42" as="geometry" />
        </mxCell>
        <mxCell id="UzN45rZz5A2laap2RB3P-17" value="Vendedor" style="swimlane;fontStyle=1;align=center;verticalAlign=top;childLayout=stackLayout;horizontal=1;startSize=26;horizontalStack=0;resizeParent=1;resizeParentMax=0;resizeLast=0;collapsible=1;marginBottom=0;" vertex="1" parent="1">
          <mxGeometry x="480" y="100" width="160" height="60" as="geometry" />
        </mxCell>
        <mxCell id="UzN45rZz5A2laap2RB3P-18" value="+ nome: String" style="text;strokeColor=none;fillColor=none;align=left;verticalAlign=top;spacingLeft=4;spacingRight=4;overflow=hidden;rotatable=0;points=[[0,0.5],[1,0.5]];portConstraint=eastwest;" vertex="1" parent="UzN45rZz5A2laap2RB3P-17">
          <mxGeometry y="26" width="160" height="26" as="geometry" />
        </mxCell>
        <mxCell id="UzN45rZz5A2laap2RB3P-19" value="" style="line;strokeWidth=1;fillColor=none;align=left;verticalAlign=middle;spacingTop=-1;spacingLeft=3;spacingRight=3;rotatable=0;labelPosition=right;points=[];portConstraint=eastwest;" vertex="1" parent="UzN45rZz5A2laap2RB3P-17">
          <mxGeometry y="52" width="160" height="8" as="geometry" />
        </mxCell>
        <mxCell id="UzN45rZz5A2laap2RB3P-41" value="Cesta" style="swimlane;fontStyle=1;align=center;verticalAlign=top;childLayout=stackLayout;horizontal=1;startSize=26;horizontalStack=0;resizeParent=1;resizeParentMax=0;resizeLast=0;collapsible=1;marginBottom=0;" vertex="1" parent="1">
          <mxGeometry x="-200" y="100" width="160" height="68" as="geometry" />
        </mxCell>
        <mxCell id="UzN45rZz5A2laap2RB3P-42" value="+ &lt;List&gt; produtos: Produtos" style="text;strokeColor=none;fillColor=none;align=left;verticalAlign=top;spacingLeft=4;spacingRight=4;overflow=hidden;rotatable=0;points=[[0,0.5],[1,0.5]];portConstraint=eastwest;" vertex="1" parent="UzN45rZz5A2laap2RB3P-41">
          <mxGeometry y="26" width="160" height="34" as="geometry" />
        </mxCell>
        <mxCell id="UzN45rZz5A2laap2RB3P-43" value="" style="line;strokeWidth=1;fillColor=none;align=left;verticalAlign=middle;spacingTop=-1;spacingLeft=3;spacingRight=3;rotatable=0;labelPosition=right;points=[];portConstraint=eastwest;" vertex="1" parent="UzN45rZz5A2laap2RB3P-41">
          <mxGeometry y="60" width="160" height="8" as="geometry" />
        </mxCell>
        <mxCell id="UzN45rZz5A2laap2RB3P-33" value="Funcionario" style="swimlane;fontStyle=1;align=center;verticalAlign=top;childLayout=stackLayout;horizontal=1;startSize=26;horizontalStack=0;resizeParent=1;resizeParentMax=0;resizeLast=0;collapsible=1;marginBottom=0;" vertex="1" parent="1">
          <mxGeometry x="680" y="100" width="160" height="60" as="geometry" />
        </mxCell>
        <mxCell id="UzN45rZz5A2laap2RB3P-34" value="+ matricula: Long" style="text;strokeColor=none;fillColor=none;align=left;verticalAlign=top;spacingLeft=4;spacingRight=4;overflow=hidden;rotatable=0;points=[[0,0.5],[1,0.5]];portConstraint=eastwest;" vertex="1" parent="UzN45rZz5A2laap2RB3P-33">
          <mxGeometry y="26" width="160" height="26" as="geometry" />
        </mxCell>
        <mxCell id="UzN45rZz5A2laap2RB3P-35" value="" style="line;strokeWidth=1;fillColor=none;align=left;verticalAlign=middle;spacingTop=-1;spacingLeft=3;spacingRight=3;rotatable=0;labelPosition=right;points=[];portConstraint=eastwest;" vertex="1" parent="UzN45rZz5A2laap2RB3P-33">
          <mxGeometry y="52" width="160" height="8" as="geometry" />
        </mxCell>
        <mxCell id="UzN45rZz5A2laap2RB3P-57" value="" style="endArrow=diamondThin;endFill=0;endSize=24;html=1;exitX=1;exitY=0.5;exitDx=0;exitDy=0;entryX=0;entryY=0.5;entryDx=0;entryDy=0;" edge="1" parent="1" source="UzN45rZz5A2laap2RB3P-50" target="UzN45rZz5A2laap2RB3P-46">
          <mxGeometry width="160" relative="1" as="geometry">
            <mxPoint x="-440" y="270" as="sourcePoint" />
            <mxPoint x="-280" y="270" as="targetPoint" />
            <Array as="points">
              <mxPoint x="-550" y="79" />
              <mxPoint x="-550" y="139" />
            </Array>
          </mxGeometry>
        </mxCell>
        <mxCell id="UzN45rZz5A2laap2RB3P-58" value="" style="endArrow=diamondThin;endFill=0;endSize=24;html=1;exitX=1;exitY=0.5;exitDx=0;exitDy=0;entryX=0;entryY=0.5;entryDx=0;entryDy=0;" edge="1" parent="1" source="UzN45rZz5A2laap2RB3P-54" target="UzN45rZz5A2laap2RB3P-46">
          <mxGeometry width="160" relative="1" as="geometry">
            <mxPoint x="-413" y="236" as="sourcePoint" />
            <mxPoint x="-373" y="296" as="targetPoint" />
            <Array as="points">
              <mxPoint x="-550" y="199" />
              <mxPoint x="-550" y="139" />
            </Array>
          </mxGeometry>
        </mxCell>
        <mxCell id="UzN45rZz5A2laap2RB3P-59" value="" style="endArrow=diamondThin;endFill=0;endSize=24;html=1;exitX=0;exitY=0.5;exitDx=0;exitDy=0;entryX=1;entryY=0.5;entryDx=0;entryDy=0;" edge="1" parent="1" source="UzN45rZz5A2laap2RB3P-6" target="UzN45rZz5A2laap2RB3P-2">
          <mxGeometry width="160" relative="1" as="geometry">
            <mxPoint x="220" y="223" as="sourcePoint" />
            <mxPoint x="260" y="283" as="targetPoint" />
            <Array as="points">
              <mxPoint x="250" y="79" />
              <mxPoint x="250" y="148" />
            </Array>
          </mxGeometry>
        </mxCell>
        <mxCell id="UzN45rZz5A2laap2RB3P-60" value="" style="endArrow=diamondThin;endFill=0;endSize=24;html=1;exitX=0;exitY=0.5;exitDx=0;exitDy=0;entryX=1;entryY=0.5;entryDx=0;entryDy=0;" edge="1" parent="1" source="UzN45rZz5A2laap2RB3P-10" target="UzN45rZz5A2laap2RB3P-2">
          <mxGeometry width="160" relative="1" as="geometry">
            <mxPoint x="250" y="89" as="sourcePoint" />
            <mxPoint x="210" y="149" as="targetPoint" />
            <Array as="points">
              <mxPoint x="250" y="199" />
              <mxPoint x="250" y="148" />
            </Array>
          </mxGeometry>
        </mxCell>
        <mxCell id="UzN45rZz5A2laap2RB3P-61" value="" style="endArrow=diamondThin;endFill=0;endSize=24;html=1;exitX=0;exitY=0.5;exitDx=0;exitDy=0;entryX=1;entryY=0.5;entryDx=0;entryDy=0;" edge="1" parent="1" source="UzN45rZz5A2laap2RB3P-34" target="UzN45rZz5A2laap2RB3P-18">
          <mxGeometry width="160" relative="1" as="geometry">
            <mxPoint x="250" y="209" as="sourcePoint" />
            <mxPoint x="210" y="149" as="targetPoint" />
          </mxGeometry>
        </mxCell>
        <mxCell id="UzN45rZz5A2laap2RB3P-62" value="" style="endArrow=diamondThin;endFill=0;endSize=24;html=1;exitX=0;exitY=0.75;exitDx=0;exitDy=0;entryX=1;entryY=0.5;entryDx=0;entryDy=0;" edge="1" parent="1" source="UzN45rZz5A2laap2RB3P-37" target="UzN45rZz5A2laap2RB3P-34">
          <mxGeometry width="160" relative="1" as="geometry">
            <mxPoint x="880" y="16" as="sourcePoint" />
            <mxPoint x="650" y="149" as="targetPoint" />
            <Array as="points">
              <mxPoint x="880" y="64" />
              <mxPoint x="880" y="139" />
            </Array>
          </mxGeometry>
        </mxCell>
        <mxCell id="UzN45rZz5A2laap2RB3P-63" value="" style="endArrow=diamondThin;endFill=0;endSize=24;html=1;exitX=0;exitY=0.5;exitDx=0;exitDy=0;entryX=1;entryY=0.5;entryDx=0;entryDy=0;" edge="1" parent="1" source="UzN45rZz5A2laap2RB3P-25" target="UzN45rZz5A2laap2RB3P-34">
          <mxGeometry width="160" relative="1" as="geometry">
            <mxPoint x="880" y="139" as="sourcePoint" />
            <mxPoint x="850" y="149" as="targetPoint" />
            <Array as="points">
              <mxPoint x="880" y="117" />
              <mxPoint x="880" y="139" />
            </Array>
          </mxGeometry>
        </mxCell>
        <mxCell id="UzN45rZz5A2laap2RB3P-64" value="" style="endArrow=diamondThin;endFill=0;endSize=24;html=1;exitX=0;exitY=0.5;exitDx=0;exitDy=0;entryX=1;entryY=0.5;entryDx=0;entryDy=0;" edge="1" parent="1" source="UzN45rZz5A2laap2RB3P-29" target="UzN45rZz5A2laap2RB3P-34">
          <mxGeometry width="160" relative="1" as="geometry">
            <mxPoint x="880" y="262" as="sourcePoint" />
            <mxPoint x="850" y="149" as="targetPoint" />
            <Array as="points">
              <mxPoint x="880" y="180" />
              <mxPoint x="880" y="139" />
            </Array>
          </mxGeometry>
        </mxCell>
        <mxCell id="UzN45rZz5A2laap2RB3P-65" value="" style="endArrow=diamondThin;endFill=1;endSize=24;html=1;exitX=0.5;exitY=1;exitDx=0;exitDy=0;entryX=0.5;entryY=0;entryDx=0;entryDy=0;" edge="1" parent="1" source="UzN45rZz5A2laap2RB3P-1" target="UzN45rZz5A2laap2RB3P-13">
          <mxGeometry width="160" relative="1" as="geometry">
            <mxPoint x="120" y="204" as="sourcePoint" />
            <mxPoint x="410" y="350" as="targetPoint" />
          </mxGeometry>
        </mxCell>
        <mxCell id="UzN45rZz5A2laap2RB3P-66" value="" style="endArrow=diamondThin;endFill=1;endSize=24;html=1;entryX=1.013;entryY=0.151;entryDx=0;entryDy=0;entryPerimeter=0;exitX=0.5;exitY=1;exitDx=0;exitDy=0;" edge="1" parent="1" source="UzN45rZz5A2laap2RB3P-17" target="UzN45rZz5A2laap2RB3P-13">
          <mxGeometry width="160" relative="1" as="geometry">
            <mxPoint x="569.2799999999997" y="187.66400000000021" as="sourcePoint" />
            <mxPoint x="450" y="394" as="targetPoint" />
            <Array as="points">
              <mxPoint x="560" y="350" />
            </Array>
          </mxGeometry>
        </mxCell>
        <mxCell id="UzN45rZz5A2laap2RB3P-67" value="" style="endArrow=diamondThin;endFill=1;endSize=24;html=1;exitX=0.5;exitY=1;exitDx=0;exitDy=0;entryX=0;entryY=0.5;entryDx=0;entryDy=0;" edge="1" parent="1" source="UzN45rZz5A2laap2RB3P-41" target="UzN45rZz5A2laap2RB3P-14">
          <mxGeometry width="160" relative="1" as="geometry">
            <mxPoint x="-121.92000000000007" y="206.0020000000004" as="sourcePoint" />
            <mxPoint x="20" y="320" as="targetPoint" />
            <Array as="points">
              <mxPoint x="-120" y="408" />
            </Array>
          </mxGeometry>
        </mxCell>
        <mxCell id="UzN45rZz5A2laap2RB3P-68" value="" style="endArrow=diamondThin;endFill=1;endSize=24;html=1;exitX=0.474;exitY=1.025;exitDx=0;exitDy=0;exitPerimeter=0;entryX=0;entryY=0.5;entryDx=0;entryDy=0;" edge="1" parent="1" source="UzN45rZz5A2laap2RB3P-48" target="UzN45rZz5A2laap2RB3P-14">
          <mxGeometry width="160" relative="1" as="geometry">
            <mxPoint x="-410" y="260" as="sourcePoint" />
            <mxPoint x="-20" y="390" as="targetPoint" />
            <Array as="points">
              <mxPoint x="-396" y="408" />
            </Array>
          </mxGeometry>
        </mxCell>
        <mxCell id="UzN45rZz5A2laap2RB3P-49" value="Boleto" style="swimlane;fontStyle=1;align=center;verticalAlign=top;childLayout=stackLayout;horizontal=1;startSize=26;horizontalStack=0;resizeParent=1;resizeParentMax=0;resizeLast=0;collapsible=1;marginBottom=0;" vertex="1" parent="1">
          <mxGeometry x="-750" y="40" width="160" height="86" as="geometry" />
        </mxCell>
        <mxCell id="UzN45rZz5A2laap2RB3P-50" value="+ valorPagamento: Double" style="text;strokeColor=none;fillColor=none;align=left;verticalAlign=top;spacingLeft=4;spacingRight=4;overflow=hidden;rotatable=0;points=[[0,0.5],[1,0.5]];portConstraint=eastwest;" vertex="1" parent="UzN45rZz5A2laap2RB3P-49">
          <mxGeometry y="26" width="160" height="26" as="geometry" />
        </mxCell>
        <mxCell id="UzN45rZz5A2laap2RB3P-51" value="" style="line;strokeWidth=1;fillColor=none;align=left;verticalAlign=middle;spacingTop=-1;spacingLeft=3;spacingRight=3;rotatable=0;labelPosition=right;points=[];portConstraint=eastwest;" vertex="1" parent="UzN45rZz5A2laap2RB3P-49">
          <mxGeometry y="52" width="160" height="8" as="geometry" />
        </mxCell>
        <mxCell id="UzN45rZz5A2laap2RB3P-52" value="+ pagar(Double): Boolean" style="text;strokeColor=none;fillColor=none;align=left;verticalAlign=top;spacingLeft=4;spacingRight=4;overflow=hidden;rotatable=0;points=[[0,0.5],[1,0.5]];portConstraint=eastwest;" vertex="1" parent="UzN45rZz5A2laap2RB3P-49">
          <mxGeometry y="60" width="160" height="26" as="geometry" />
        </mxCell>
        <mxCell id="UzN45rZz5A2laap2RB3P-53" value="CartaoCredito" style="swimlane;fontStyle=1;align=center;verticalAlign=top;childLayout=stackLayout;horizontal=1;startSize=26;horizontalStack=0;resizeParent=1;resizeParentMax=0;resizeLast=0;collapsible=1;marginBottom=0;" vertex="1" parent="1">
          <mxGeometry x="-750" y="160" width="160" height="86" as="geometry" />
        </mxCell>
        <mxCell id="UzN45rZz5A2laap2RB3P-54" value="+ valorPagamento: Double" style="text;strokeColor=none;fillColor=none;align=left;verticalAlign=top;spacingLeft=4;spacingRight=4;overflow=hidden;rotatable=0;points=[[0,0.5],[1,0.5]];portConstraint=eastwest;" vertex="1" parent="UzN45rZz5A2laap2RB3P-53">
          <mxGeometry y="26" width="160" height="26" as="geometry" />
        </mxCell>
        <mxCell id="UzN45rZz5A2laap2RB3P-55" value="" style="line;strokeWidth=1;fillColor=none;align=left;verticalAlign=middle;spacingTop=-1;spacingLeft=3;spacingRight=3;rotatable=0;labelPosition=right;points=[];portConstraint=eastwest;" vertex="1" parent="UzN45rZz5A2laap2RB3P-53">
          <mxGeometry y="52" width="160" height="8" as="geometry" />
        </mxCell>
        <mxCell id="UzN45rZz5A2laap2RB3P-56" value="+ pagar(Double): Boolean" style="text;strokeColor=none;fillColor=none;align=left;verticalAlign=top;spacingLeft=4;spacingRight=4;overflow=hidden;rotatable=0;points=[[0,0.5],[1,0.5]];portConstraint=eastwest;" vertex="1" parent="UzN45rZz5A2laap2RB3P-53">
          <mxGeometry y="60" width="160" height="26" as="geometry" />
        </mxCell>
        <mxCell id="UzN45rZz5A2laap2RB3P-45" value="Pagamento" style="swimlane;fontStyle=1;align=center;verticalAlign=top;childLayout=stackLayout;horizontal=1;startSize=26;horizontalStack=0;resizeParent=1;resizeParentMax=0;resizeLast=0;collapsible=1;marginBottom=0;" vertex="1" parent="1">
          <mxGeometry x="-500" y="100" width="220" height="100" as="geometry" />
        </mxCell>
        <mxCell id="UzN45rZz5A2laap2RB3P-46" value="+ valorTotal: Double" style="text;strokeColor=none;fillColor=none;align=left;verticalAlign=top;spacingLeft=4;spacingRight=4;overflow=hidden;rotatable=0;points=[[0,0.5],[1,0.5]];portConstraint=eastwest;" vertex="1" parent="UzN45rZz5A2laap2RB3P-45">
          <mxGeometry y="26" width="220" height="26" as="geometry" />
        </mxCell>
        <mxCell id="UzN45rZz5A2laap2RB3P-47" value="" style="line;strokeWidth=1;fillColor=none;align=left;verticalAlign=middle;spacingTop=-1;spacingLeft=3;spacingRight=3;rotatable=0;labelPosition=right;points=[];portConstraint=eastwest;" vertex="1" parent="UzN45rZz5A2laap2RB3P-45">
          <mxGeometry y="52" width="220" height="8" as="geometry" />
        </mxCell>
        <mxCell id="UzN45rZz5A2laap2RB3P-48" value="+ pagarCartao(Double, Integer): Boolean&#xa;+ pagarBoleto(Double): Boolean" style="text;strokeColor=none;fillColor=none;align=left;verticalAlign=top;spacingLeft=4;spacingRight=4;overflow=hidden;rotatable=0;points=[[0,0.5],[1,0.5]];portConstraint=eastwest;" vertex="1" parent="UzN45rZz5A2laap2RB3P-45">
          <mxGeometry y="60" width="220" height="40" as="geometry" />
        </mxCell>
        <mxCell id="UzN45rZz5A2laap2RB3P-69" value="Produto" style="swimlane;fontStyle=1;align=center;verticalAlign=top;childLayout=stackLayout;horizontal=1;startSize=26;horizontalStack=0;resizeParent=1;resizeParentMax=0;resizeLast=0;collapsible=1;marginBottom=0;" vertex="1" parent="1">
          <mxGeometry x="-200" y="-40" width="160" height="78" as="geometry" />
        </mxCell>
        <mxCell id="UzN45rZz5A2laap2RB3P-70" value="+ descriÃ§Ã£o: String&#xa;+ valorProduto: Double" style="text;strokeColor=none;fillColor=none;align=left;verticalAlign=top;spacingLeft=4;spacingRight=4;overflow=hidden;rotatable=0;points=[[0,0.5],[1,0.5]];portConstraint=eastwest;" vertex="1" parent="UzN45rZz5A2laap2RB3P-69">
          <mxGeometry y="26" width="160" height="44" as="geometry" />
        </mxCell>
        <mxCell id="UzN45rZz5A2laap2RB3P-71" value="" style="line;strokeWidth=1;fillColor=none;align=left;verticalAlign=middle;spacingTop=-1;spacingLeft=3;spacingRight=3;rotatable=0;labelPosition=right;points=[];portConstraint=eastwest;" vertex="1" parent="UzN45rZz5A2laap2RB3P-69">
          <mxGeometry y="70" width="160" height="8" as="geometry" />
        </mxCell>
        <mxCell id="UzN45rZz5A2laap2RB3P-72" value="" style="endArrow=diamondThin;endFill=1;endSize=24;html=1;exitX=0.5;exitY=1;exitDx=0;exitDy=0;entryX=0.5;entryY=0;entryDx=0;entryDy=0;" edge="1" parent="1" source="UzN45rZz5A2laap2RB3P-69" target="UzN45rZz5A2laap2RB3P-41">
          <mxGeometry width="160" relative="1" as="geometry">
            <mxPoint x="30" y="-148.22000000000003" as="sourcePoint" />
            <mxPoint x="188.07999999999993" y="38.00399999999968" as="targetPoint" />
          </mxGeometry>
        </mxCell>
        <mxCell id="UzN45rZz5A2laap2RB3P-25" value="VendedorLoja" style="swimlane;fontStyle=1;align=center;verticalAlign=top;childLayout=stackLayout;horizontal=1;startSize=26;horizontalStack=0;resizeParent=1;resizeParentMax=0;resizeLast=0;collapsible=1;marginBottom=0;" vertex="1" parent="1">
          <mxGeometry x="910" y="100" width="160" height="34" as="geometry" />
        </mxCell>
        <mxCell id="UzN45rZz5A2laap2RB3P-27" value="" style="line;strokeWidth=1;fillColor=none;align=left;verticalAlign=middle;spacingTop=-1;spacingLeft=3;spacingRight=3;rotatable=0;labelPosition=right;points=[];portConstraint=eastwest;" vertex="1" parent="UzN45rZz5A2laap2RB3P-25">
          <mxGeometry y="26" width="160" height="8" as="geometry" />
        </mxCell>
        <mxCell id="UzN45rZz5A2laap2RB3P-37" value="GerenteLoja" style="swimlane;fontStyle=1;align=center;verticalAlign=top;childLayout=stackLayout;horizontal=1;startSize=26;horizontalStack=0;resizeParent=1;resizeParentMax=0;resizeLast=0;collapsible=1;marginBottom=0;" vertex="1" parent="1">
          <mxGeometry x="910" y="38" width="160" height="34" as="geometry" />
        </mxCell>
        <mxCell id="UzN45rZz5A2laap2RB3P-39" value="" style="line;strokeWidth=1;fillColor=none;align=left;verticalAlign=middle;spacingTop=-1;spacingLeft=3;spacingRight=3;rotatable=0;labelPosition=right;points=[];portConstraint=eastwest;" vertex="1" parent="UzN45rZz5A2laap2RB3P-37">
          <mxGeometry y="26" width="160" height="8" as="geometry" />
        </mxCell>
        <mxCell id="UzN45rZz5A2laap2RB3P-29" value="GerenteArea" style="swimlane;fontStyle=1;align=center;verticalAlign=top;childLayout=stackLayout;horizontal=1;startSize=26;horizontalStack=0;resizeParent=1;resizeParentMax=0;resizeLast=0;collapsible=1;marginBottom=0;" vertex="1" parent="1">
          <mxGeometry x="910" y="166" width="160" height="34" as="geometry" />
        </mxCell>
        <mxCell id="UzN45rZz5A2laap2RB3P-31" value="" style="line;strokeWidth=1;fillColor=none;align=left;verticalAlign=middle;spacingTop=-1;spacingLeft=3;spacingRight=3;rotatable=0;labelPosition=right;points=[];portConstraint=eastwest;" vertex="1" parent="UzN45rZz5A2laap2RB3P-29">
          <mxGeometry y="26" width="160" height="8" as="geometry" />
        </mxCell>
        <mxCell id="UzN45rZz5A2laap2RB3P-5" value="PessoaFisica" style="swimlane;fontStyle=1;align=center;verticalAlign=top;childLayout=stackLayout;horizontal=1;startSize=26;horizontalStack=0;resizeParent=1;resizeParentMax=0;resizeLast=0;collapsible=1;marginBottom=0;" vertex="1" parent="1">
          <mxGeometry x="280" y="40" width="160" height="60" as="geometry" />
        </mxCell>
        <mxCell id="UzN45rZz5A2laap2RB3P-6" value="+ cps: String" style="text;strokeColor=none;fillColor=none;align=left;verticalAlign=top;spacingLeft=4;spacingRight=4;overflow=hidden;rotatable=0;points=[[0,0.5],[1,0.5]];portConstraint=eastwest;" vertex="1" parent="UzN45rZz5A2laap2RB3P-5">
          <mxGeometry y="26" width="160" height="26" as="geometry" />
        </mxCell>
        <mxCell id="UzN45rZz5A2laap2RB3P-7" value="" style="line;strokeWidth=1;fillColor=none;align=left;verticalAlign=middle;spacingTop=-1;spacingLeft=3;spacingRight=3;rotatable=0;labelPosition=right;points=[];portConstraint=eastwest;" vertex="1" parent="UzN45rZz5A2laap2RB3P-5">
          <mxGeometry y="52" width="160" height="8" as="geometry" />
        </mxCell>
        <mxCell id="UzN45rZz5A2laap2RB3P-9" value="PessoaJuridica" style="swimlane;fontStyle=1;align=center;verticalAlign=top;childLayout=stackLayout;horizontal=1;startSize=26;horizontalStack=0;resizeParent=1;resizeParentMax=0;resizeLast=0;collapsible=1;marginBottom=0;" vertex="1" parent="1">
          <mxGeometry x="280" y="160" width="160" height="60" as="geometry" />
        </mxCell>
        <mxCell id="UzN45rZz5A2laap2RB3P-10" value="+ cnpj: String" style="text;strokeColor=none;fillColor=none;align=left;verticalAlign=top;spacingLeft=4;spacingRight=4;overflow=hidden;rotatable=0;points=[[0,0.5],[1,0.5]];portConstraint=eastwest;" vertex="1" parent="UzN45rZz5A2laap2RB3P-9">
          <mxGeometry y="26" width="160" height="26" as="geometry" />
        </mxCell>
        <mxCell id="UzN45rZz5A2laap2RB3P-11" value="" style="line;strokeWidth=1;fillColor=none;align=left;verticalAlign=middle;spacingTop=-1;spacingLeft=3;spacingRight=3;rotatable=0;labelPosition=right;points=[];portConstraint=eastwest;" vertex="1" parent="UzN45rZz5A2laap2RB3P-9">
          <mxGeometry y="52" width="160" height="8" as="geometry" />
        </mxCell>
      </root>
    </mxGraphModel>
  </diagram>
</mxfile>
